<svg
 xmlns="http://www.w3.org/2000/svg"
 xmlns:xlink="http://www.w3.org/1999/xlink"
 width="16px" height="15px">
<path fill-rule="evenodd" d="M15.412,6.981 L9.238,0.769 C9.230,0.761 9.222,0.753 9.214,0.746 C8.539,0.140 7.521,0.139 6.844,0.741 C6.836,0.748 6.827,0.756 6.819,0.764 L0.589,6.979 C0.358,7.210 0.357,7.585 0.588,7.818 C0.820,8.049 1.195,8.049 1.426,7.818 L1.897,7.349 L1.897,12.463 C1.897,13.768 2.960,14.831 4.267,14.831 L6.400,14.831 C6.727,14.831 6.992,14.566 6.992,14.240 L6.992,9.412 L9.066,9.412 L9.066,14.240 C9.066,14.566 9.332,14.831 9.659,14.831 L11.733,14.831 C13.040,14.831 14.103,13.768 14.103,12.463 C14.103,12.135 13.838,11.871 13.510,11.871 C13.183,11.871 12.918,12.135 12.918,12.463 C12.918,13.116 12.386,13.647 11.733,13.647 L10.251,13.647 L10.251,8.820 C10.251,8.493 9.986,8.228 9.659,8.228 L6.400,8.228 C6.073,8.228 5.807,8.493 5.807,8.820 L5.807,13.647 L4.267,13.647 C3.613,13.647 3.082,13.116 3.082,12.463 L3.082,6.184 C3.082,6.179 3.081,6.173 3.081,6.166 L7.643,1.616 C7.865,1.428 8.190,1.429 8.411,1.618 L12.918,6.152 L12.918,9.501 C12.918,9.828 13.183,10.093 13.510,10.093 C13.838,10.093 14.103,9.828 14.103,9.501 L14.103,7.345 L14.571,7.816 C14.687,7.933 14.839,7.991 14.992,7.991 C15.143,7.991 15.294,7.934 15.409,7.818 C15.642,7.588 15.643,7.213 15.412,6.981 Z"/>
</svg>