<svg
 xmlns="http://www.w3.org/2000/svg"
 xmlns:xlink="http://www.w3.org/1999/xlink"
 width="13px" height="13px">
<path fill-rule="evenodd" fill="rgb(0, 102, 213)"
 d="M10.538,0.977 L1.531,0.977 C0.703,0.977 0.030,1.650 0.030,2.477 L0.030,11.484 C0.030,12.311 0.703,12.985 1.531,12.985 L6.034,12.985 L6.034,8.857 L4.533,8.857 L4.533,6.980 L6.034,6.980 L6.034,5.480 C6.034,4.236 7.042,3.228 8.286,3.228 L9.787,3.228 L9.787,5.105 L9.036,5.105 C8.622,5.105 8.286,5.066 8.286,5.480 L8.286,6.980 L10.162,6.980 L9.412,8.857 L8.286,8.857 L8.286,12.985 L10.538,12.985 C11.365,12.985 12.039,12.311 12.039,11.484 L12.039,2.477 C12.039,1.650 11.365,0.977 10.538,0.977 Z"/>
</svg>