<svg width="50" height="50" viewBox="0 0 50 50" fill="none" xmlns="http://www.w3.org/2000/svg">
<path d="M25 1.95312C12.2922 1.95312 1.95312 12.2918 1.95312 25C1.95312 37.7082 12.2922 48.0469 25 48.0469C37.7078 48.0469 48.0469 37.7082 48.0469 25C48.0469 12.2918 37.7078 1.95312 25 1.95312ZM25 45.7031C13.584 45.7031 4.29688 36.4156 4.29688 25C4.29688 13.5844 13.584 4.29688 25 4.29688C36.416 4.29688 45.7031 13.5844 45.7031 25C45.7031 36.4156 36.416 45.7031 25 45.7031Z" fill="white"/>
<path d="M34.9609 23.8281H26.1719V15.0391C26.1719 14.3918 25.6473 13.8672 25 13.8672C24.3527 13.8672 23.8281 14.3918 23.8281 15.0391V23.8281H15.0391C14.3918 23.8281 13.8672 24.3527 13.8672 25C13.8672 25.6473 14.3918 26.1719 15.0391 26.1719H23.8281V34.9609C23.8281 35.6082 24.3527 36.1328 25 36.1328C25.6473 36.1328 26.1719 35.6082 26.1719 34.9609V26.1719H34.9609C35.6082 26.1719 36.1328 25.6473 36.1328 25C36.1328 24.3527 35.6082 23.8281 34.9609 23.8281Z" fill="white"/>
</svg>
