<svg xmlns="http://www.w3.org/2000/svg" xmlns:xlink="http://www.w3.org/1999/xlink" xmlns:svgjs="http://svgjs.com/svgjs" version="1.1" width="1531.7500305175781" height="524.0999603271484"><rect width="1531.7500305175781" height="524.0999603271484" fill="#ffffff"></rect><g transform="scale(5) translate(30, 30)"> <defs id="SvgjsDefs13001"></defs><g xmlns:name="main_text" id="SvgjsG13002" rel="mainfill" name="main_text" transform="translate(-2.059999942779541,-203.77000427246094)" fill="#2C3E50" style="fill: #2C3E50"><path d="M14.55 228.10Q15.78 229.24 16.19 230.53Q16.61 231.81 16.61 233.04Q16.61 234.70 16.07 236.10Q15.54 237.51 14.57 238.50Q13.60 239.49 12.20 240.04Q10.80 240.59 9.06 240.59Q8.30 240.59 7.37 240.47Q6.45 240.36 5.50 240.08Q4.55 239.80 3.68 239.37Q2.81 238.93 2.21 238.30Q2.14 237.94 2.10 237.53Q2.06 237.11 2.06 236.68Q2.06 235.73 2.23 234.58Q2.41 233.44 2.73 232.41L3.68 232.41Q3.64 232.80 3.62 233.06Q3.60 233.32 3.60 233.51Q3.60 235.93 5.00 237.33Q6.41 238.73 8.54 238.73L8.86 238.73Q9.85 238.70 10.76 238.34Q11.67 237.98 12.32 237.35Q12.97 236.72 13.37 235.85Q13.76 234.98 13.76 233.87Q13.76 231.77 12.34 230.55L4.94 223.67Q3.76 222.52 3.24 221.16Q2.73 219.79 2.73 218.61Q2.73 217.34 3.20 216.12Q3.68 214.89 4.57 213.92Q5.46 212.95 6.78 212.36Q8.11 211.77 9.85 211.77Q10.64 211.77 11.53 211.86Q12.42 211.96 13.21 212.16L15.07 212.16L15.07 217.54L14.04 217.54Q14.04 215.68 12.85 214.63Q11.67 213.58 10.00 213.58Q9.02 213.58 8.21 213.92Q7.39 214.26 6.80 214.83Q6.21 215.40 5.89 216.14Q5.58 216.87 5.58 217.70Q5.58 218.41 5.87 219.32Q6.17 220.23 7.08 221.02L14.55 228.10ZM49.59 237.19L49.59 237.15Q49.75 238.06 50.42 238.54Q51.09 239.01 51.92 239.01L52.83 239.01L52.83 240.04L44.17 240.04L44.17 239.05L45.08 239.05Q45.51 239.05 45.83 238.77Q46.15 238.50 46.15 238.06L46.15 237.90Q45.63 234.07 45.18 230.53Q44.72 226.99 44.25 223.11L37.49 236.48Q37.49 236.52 37.31 236.92Q37.13 237.31 36.89 237.90Q36.66 238.50 36.42 239.21Q36.18 239.92 36.06 240.59L35.23 240.59L26.34 223.47L24.71 237.86L24.75 237.86Q24.71 237.90 24.71 237.94Q24.71 238.38 25.05 238.70Q25.39 239.01 25.82 239.01L26.73 239.01L26.73 240L18.98 240L18.98 238.97L19.85 238.97Q20.76 238.97 21.41 238.48Q22.07 237.98 22.18 237.07L25.19 215.72L26.06 215.72L36.02 234.90L45.63 215.72L46.50 215.72L49.59 237.19ZM76.36 236.92Q76.87 238.02 77.60 238.50Q78.34 238.97 79.01 238.97L79.64 238.97L79.64 240L71.10 240L71.10 238.97L71.73 238.97Q72.17 238.97 72.54 238.66Q72.92 238.34 72.92 237.75Q72.92 237.47 72.80 237.11L70.78 232.21L61.49 232.21L59.47 236.99Q59.32 237.35 59.32 237.75Q59.32 238.34 59.67 238.66Q60.03 238.97 60.46 238.97L61.10 238.97L61.10 240L53.11 240L53.11 238.97L53.74 238.97Q54.41 238.97 55.16 238.50Q55.91 238.02 56.47 236.92L64.46 219.87Q64.85 219.04 65.17 218.29Q65.44 217.62 65.66 216.91Q65.88 216.19 65.92 215.72L66.79 215.72L76.36 236.92M70.03 230.39L66.20 221.06L62.24 230.39L70.03 230.39ZM90.44 216.31Q94.15 216.39 96.37 218.11Q98.58 219.83 98.58 222.88Q98.58 224.06 98.19 225.13Q97.79 226.20 97.06 227.07Q96.33 227.94 95.34 228.55Q94.35 229.17 93.17 229.44Q93.76 229.92 94.39 230.65Q95.02 231.38 95.50 232.05L95.50 232.01Q96.01 232.76 96.57 233.48Q97.04 234.11 97.63 234.82Q98.23 235.53 98.82 236.20Q99.37 236.84 99.89 237.35Q100.40 237.86 100.96 238.24Q101.51 238.62 102.16 238.81Q102.81 239.01 103.64 239.01L103.64 240.04L102.14 240.04Q100.48 240.04 99.29 239.70Q98.11 239.37 97.24 238.85Q96.37 238.34 95.79 237.73Q95.22 237.11 94.75 236.56Q94.55 236.36 93.96 235.47Q93.36 234.58 92.69 233.67L90.95 231.22Q90.24 230.31 89.33 229.56Q88.42 228.81 86.28 228.81L86.28 237.19Q86.32 237.90 86.84 238.42Q87.35 238.93 88.14 238.93L89.01 238.93L89.01 239.96L80.47 239.96L80.47 238.93L81.34 238.93Q82.13 238.93 82.65 238.44Q83.16 237.94 83.20 237.23L83.20 219.00Q83.16 218.29 82.65 217.82Q82.13 217.34 81.34 217.34L80.51 217.34L80.51 216.27L90.44 216.31M88.62 227.78Q89.05 227.78 89.67 227.76Q90.28 227.74 91.07 227.68Q91.86 227.62 92.57 227.33Q93.28 227.03 93.88 226.42Q94.47 225.80 94.87 224.66Q95.14 223.91 95.14 222.92Q95.14 222.68 95.10 222.60Q95.06 220.58 93.80 219.44Q92.53 218.29 90.36 218.17Q89.57 218.13 88.82 218.13L86.28 218.13L86.28 227.78L88.62 227.78ZM122.15 216.23Q122.70 216.23 123.38 216.16Q124.05 216.08 124.70 215.96Q125.35 215.84 125.91 215.70Q126.46 215.56 126.78 215.44L126.78 220.62L125.71 220.62L125.71 219.71Q125.71 219.04 125.25 218.57Q124.80 218.09 124.09 218.05L117.48 218.05L117.48 237.23Q117.52 237.94 118.08 238.46Q118.63 238.97 119.42 238.97L120.21 238.97L120.21 240L111.63 240L111.63 238.97L112.42 238.97Q113.21 238.97 113.75 238.46Q114.28 237.94 114.36 237.19L114.36 218.05L107.72 218.05Q107.01 218.09 106.57 218.57Q106.14 219.04 106.14 219.71L106.14 220.62L105.03 220.62L105.03 215.44Q105.34 215.56 105.90 215.70Q106.45 215.84 107.10 215.96Q107.76 216.08 108.43 216.16Q109.10 216.23 109.65 216.23L122.15 216.23ZM168.06 237.19L168.06 237.15Q168.22 238.06 168.89 238.54Q169.56 239.01 170.39 239.01L171.30 239.01L171.30 240.04L162.64 240.04L162.64 239.05L163.55 239.05Q163.99 239.05 164.30 238.77Q164.62 238.50 164.62 238.06L164.62 237.90Q164.11 234.07 163.65 230.53Q163.20 226.99 162.72 223.11L155.96 236.48Q155.96 236.52 155.78 236.92Q155.60 237.31 155.37 237.90Q155.13 238.50 154.89 239.21Q154.66 239.92 154.54 240.59L153.71 240.59L144.81 223.47L143.19 237.86L143.23 237.86Q143.19 237.90 143.19 237.94Q143.19 238.38 143.52 238.70Q143.86 239.01 144.30 239.01L145.20 239.01L145.20 240L137.45 240L137.45 238.97L138.32 238.97Q139.23 238.97 139.89 238.48Q140.54 237.98 140.66 237.07L143.66 215.72L144.53 215.72L154.50 234.90L164.11 215.72L164.98 215.72L168.06 237.19ZM186.49 215.72Q189.26 215.72 191.67 216.63Q194.08 217.54 195.90 219.18Q197.72 220.82 198.77 223.10Q199.81 225.37 199.81 228.14Q199.81 230.90 198.77 233.18Q197.72 235.45 195.90 237.09Q194.08 238.73 191.67 239.64Q189.26 240.55 186.49 240.55Q183.72 240.55 181.29 239.64Q178.86 238.73 177.04 237.09Q175.22 235.45 174.17 233.18Q173.12 230.90 173.12 228.14Q173.12 225.37 174.17 223.10Q175.22 220.82 177.04 219.18Q178.86 217.54 181.29 216.63Q183.72 215.72 186.49 215.72M186.49 238.73Q188.54 238.73 190.32 237.96Q192.10 237.19 193.43 235.81Q194.75 234.42 195.50 232.47Q196.26 230.51 196.26 228.14Q196.26 225.76 195.50 223.81Q194.75 221.85 193.43 220.47Q192.10 219.08 190.32 218.31Q188.54 217.54 186.49 217.54Q184.43 217.54 182.63 218.31Q180.83 219.08 179.51 220.47Q178.18 221.85 177.43 223.81Q176.68 225.76 176.68 228.14Q176.68 230.51 177.43 232.47Q178.18 234.42 179.51 235.81Q180.83 237.19 182.63 237.96Q184.43 238.73 186.49 238.73ZM228.25 216.27L228.25 217.30L227.61 217.30Q226.94 217.30 226.21 217.80Q225.48 218.29 224.92 219.36L216.94 236.40Q216.54 237.27 216.23 238.02Q215.95 238.70 215.73 239.41Q215.51 240.12 215.47 240.55L214.60 240.55L204.99 219.36Q204.44 218.29 203.73 217.80Q203.02 217.30 202.35 217.30L201.71 217.30L201.71 216.27L210.25 216.27L210.25 217.30L209.62 217.30Q209.19 217.30 208.83 217.62Q208.47 217.93 208.47 218.57Q208.47 218.88 208.59 219.24L208.55 219.20L215.16 235.25L221.88 219.28Q222.04 218.96 222.04 218.57Q222.04 217.97 221.68 217.64Q221.33 217.30 220.89 217.30L220.26 217.30L220.26 216.27L228.25 216.27ZM246.04 240.20L229.87 240.20L229.87 239.17L230.74 239.17Q231.53 239.17 232.04 238.66Q232.56 238.14 232.60 237.39L232.60 219.12Q232.60 218.41 232.06 217.91Q231.53 217.42 230.74 217.42L229.87 217.42L229.87 216.39L241.45 216.39Q242.01 216.39 242.68 216.31Q243.35 216.23 244.00 216.12Q244.66 216.00 245.19 215.86Q245.72 215.72 246.04 215.60L246.04 220.78L244.97 220.78L244.97 219.87Q244.97 219.20 244.52 218.73Q244.06 218.25 243.35 218.21L235.72 218.21L235.72 227.31L241.97 227.31Q242.60 227.27 242.92 226.89Q243.23 226.52 243.23 226.00L243.23 225.17L244.30 225.17L244.30 231.22L243.23 231.22L243.23 230.39Q243.23 229.88 242.94 229.52Q242.64 229.17 242.05 229.09L235.76 229.09L235.76 238.18L241.41 238.18Q242.72 238.14 243.65 237.81Q244.58 237.47 245.25 236.92Q245.92 236.36 246.42 235.57Q246.91 234.78 247.31 233.87L248.41 233.87L246.04 240.20Z" fill="#2C3E50" style="fill: #2C3E50"></path></g> </g></svg>
