<?xml version="1.0" encoding="utf-8"?><svg viewBox="0 0 21 21" xmlns="http://www.w3.org/2000/svg" xmlns:xlink="http://www.w3.org/1999/xlink"><style>:root>svg{display:none}:root>svg:target{display:block}</style><svg viewBox="0 0 16 15" id="ic_location" xmlns="http://www.w3.org/2000/svg"><path fill-rule="evenodd" d="M15.412 6.981L9.238.769A1.776 1.776 0 0 0 6.819.764L.589 6.979a.593.593 0 0 0 .837.839l.471-.469v5.114a2.372 2.372 0 0 0 2.37 2.368H6.4a.592.592 0 0 0 .592-.591V9.412h2.074v4.828c0 .326.266.591.593.591h2.074a2.372 2.372 0 0 0 2.37-2.368.592.592 0 1 0-1.185 0c0 .653-.532 1.184-1.185 1.184h-1.482V8.82a.592.592 0 0 0-.592-.592H6.4a.593.593 0 0 0-.593.592v4.827h-1.54a1.185 1.185 0 0 1-1.185-1.184V6.184l-.001-.018 4.562-4.55a.592.592 0 0 1 .768.002l4.507 4.534v3.349a.592.592 0 1 0 1.185 0V7.345l.468.471a.59.59 0 0 0 .838.002.59.59 0 0 0 .003-.837z"/></svg><svg viewBox="0 0 21 21" id="ic_phone" xmlns="http://www.w3.org/2000/svg"><path fill-rule="evenodd" d="M19.601 9.906c-.033.004-.062.008-.095.008a.555.555 0 0 1-.551-.464 9.38 9.38 0 0 0-2.637-5.088 9.397 9.397 0 0 0-5.087-2.637.564.564 0 0 1-.46-.647.557.557 0 0 1 .642-.455 10.507 10.507 0 0 1 5.692 2.952 10.509 10.509 0 0 1 2.951 5.693.549.549 0 0 1-.455.638zM11.26 4.179a6.388 6.388 0 0 1 3.456 1.793 6.398 6.398 0 0 1 1.793 3.457.56.56 0 0 1-.46.646c-.033.004-.062.009-.095.009a.557.557 0 0 1-.551-.463 5.273 5.273 0 0 0-1.482-2.858 5.241 5.241 0 0 0-2.856-1.482.553.553 0 0 1-.451-.646.563.563 0 0 1 .646-.456zM7.551 7.868c-.306.311-.621.634-.96.944.252.559.6 1.11 1.117 1.764 1.068 1.313 2.182 2.327 3.407 3.106.12.074.261.144.41.219.103.054.211.108.318.165l1.309-1.303c.418-.419.906-.638 1.415-.638.513 0 .998.223 1.399.642l2.273 2.281c.418.415.637.907.637 1.42 0 .509-.215 1.006-.625 1.433-.178.186-.36.364-.538.534-.261.252-.509.489-.724.749-.004.009-.013.013-.017.021-.629.683-1.432 1.027-2.388 1.027-.083 0-.174-.004-.261-.009-1.42-.091-2.691-.625-3.643-1.076a19.474 19.474 0 0 1-6.486-5.081C2.7 12.27 1.698 10.593 1.027 8.784.754 8.047.398 6.921.497 5.712a3.036 3.036 0 0 1 .899-1.926l1.407-1.42.008-.008c.414-.398.903-.609 1.408-.609.505 0 .985.211 1.386.609.269.248.53.512.779.77.124.132.256.265.384.393l1.131 1.131c.869.869.869 1.996 0 2.865-.116.115-.232.236-.348.351zm-.439-2.426l-1.13-1.13c-.132-.137-.265-.269-.393-.402-.253-.26-.493-.505-.745-.74l-.013-.014c-.132-.132-.343-.289-.604-.289-.211 0-.426.104-.629.294L2.186 4.573a1.9 1.9 0 0 0-.571 1.23c-.062.757.079 1.56.464 2.591.625 1.69 1.568 3.263 2.98 4.965a18.378 18.378 0 0 0 6.11 4.786c.857.41 1.999.89 3.228.969.062.004.129.004.191.004.646 0 1.138-.211 1.556-.659.257-.302.53-.57.799-.828.178-.173.344-.33.505-.504.422-.439.422-.873-.004-1.296l-2.281-2.282-.008-.008c-.128-.141-.339-.302-.596-.302-.261 0-.484.169-.625.31l-1.416 1.416a.88.88 0 0 1-.629.286.902.902 0 0 1-.41-.103l-.049-.03c-.12-.075-.261-.145-.41-.219-.166-.083-.34-.169-.509-.277-1.329-.84-2.534-1.939-3.676-3.346l-.004-.004c-.63-.799-1.044-1.47-1.337-2.182l-.013-.037c-.074-.236-.141-.584.215-.94.005-.009.013-.013.021-.021.36-.323.691-.654 1.039-1.01.12-.116.236-.236.356-.356.439-.439.439-.844 0-1.284z"/></svg></svg>